HIERARCHY
ROOT Pelvis
{
	OFFSET 0.000000 0.000000 0.000000
	CHANNELS 6 Xposition Yposition Zposition Xrotation Yrotation Zrotation
	JOINT LeftUpLeg_virtual
	{
		OFFSET 0.000000 0.000000 0.000000
		CHANNELS 3 Xrotation Yrotation Zrotation
		JOINT LeftUpLeg
		{
			OFFSET 18.735201 -5.666702 -4.541200
			CHANNELS 3 Xrotation Yrotation Zrotation
			JOINT LeftLeg
			{
				OFFSET -0.021200 -31.938179 0.493100
				CHANNELS 3 Xrotation Yrotation Zrotation
				JOINT LeftFoot
				{
					OFFSET 0.021200 -31.938179 -4.336299
					CHANNELS 3 Xrotation Yrotation Zrotation
					JOINT LeftToeBase
					{
						OFFSET 0.943001 -26.722000 15.023500
						CHANNELS 3 Xrotation Yrotation Zrotation
						End Site
						{
							OFFSET 0 0 0
						}
					}
				}
			}
		}
	}
	JOINT RightUpLeg_virtual
	{
		OFFSET 0.000000 0.000000 0.000000
		CHANNELS 3 Xrotation Yrotation Zrotation
		JOINT RightUpLeg
		{
			OFFSET -18.735201 -5.666702 -4.541200
			CHANNELS 3 Xrotation Yrotation Zrotation
			JOINT RightLeg
			{
				OFFSET 0.018946 -31.938133 0.493100
				CHANNELS 3 Xrotation Yrotation Zrotation
				JOINT RightFoot
				{
					OFFSET -0.018946 -31.938126 -4.336299
					CHANNELS 3 Xrotation Yrotation Zrotation
					JOINT RightToeBase
					{
						OFFSET -0.943001 -26.722004 15.023500
						CHANNELS 3 Xrotation Yrotation Zrotation
						End Site
						{
							OFFSET 0 0 0
						}
					}
				}
			}
		}
	}
	JOINT Hips_virtual
	{
		OFFSET 0.000000 0.000000 0.000000
		CHANNELS 3 Xrotation Yrotation Zrotation
		JOINT Hips
		{
			OFFSET -0.000000 -0.000000 -0.000000
			CHANNELS 3 Xrotation Yrotation Zrotation
			JOINT Spine
			{
				OFFSET 0.000000 10.199997 -0.299500
				CHANNELS 3 Xrotation Yrotation Zrotation
				JOINT Spine1
				{
					OFFSET 0.000000 11.900002 -1.516600
					CHANNELS 3 Xrotation Yrotation Zrotation
					JOINT Spine2
					{
						OFFSET 0.000000 13.600006 -2.842500
						CHANNELS 3 Xrotation Yrotation Zrotation
						JOINT Neck_virtual
						{
							OFFSET 0.000000 0.000000 0.000000
							CHANNELS 3 Xrotation Yrotation Zrotation
							JOINT Neck
							{
								OFFSET 0.000000 9.624100 -2.890100
								CHANNELS 3 Xrotation Yrotation Zrotation
								JOINT Head
								{
									OFFSET 0.000000 14.068802 -1.351900
									CHANNELS 3 Xrotation Yrotation Zrotation
									End Site
									{
										OFFSET 0 0 0
									}
								}
							}
						}
						JOINT LeftShoulder_virtual
						{
							OFFSET 0.000000 0.000000 0.000000
							CHANNELS 3 Xrotation Yrotation Zrotation
							JOINT LeftShoulder
							{
								OFFSET 15.263000 10.923401 -0.547700
								CHANNELS 3 Xrotation Yrotation Zrotation
								JOINT LeftArm
								{
									OFFSET 25.438599 -2.830597 -13.032500
									CHANNELS 3 Xrotation Yrotation Zrotation
									JOINT LeftForeArm
									{
										OFFSET 29.960503 0.000000 0.000000
										CHANNELS 3 Xrotation Yrotation Zrotation
										JOINT LeftHand
										{
											OFFSET 27.849251 0.000000 0.000000
											CHANNELS 3 Xrotation Yrotation Zrotation
											End Site
											{
												OFFSET 0 0 0
											}
										}
									}
								}
							}
						}
						JOINT RightShoulder_virtual
						{
							OFFSET 0.000000 0.000000 0.000000
							CHANNELS 3 Xrotation Yrotation Zrotation
							JOINT RightShoulder
							{
								OFFSET -15.263000 10.923401 -0.547700
								CHANNELS 3 Xrotation Yrotation Zrotation
								JOINT RightArm
								{
									OFFSET -25.438599 -2.830597 -13.032500
									CHANNELS 3 Xrotation Yrotation Zrotation
									JOINT RightForeArm
									{
										OFFSET -29.960503 0.000000 0.000000
										CHANNELS 3 Xrotation Yrotation Zrotation
										JOINT RightHand
										{
											OFFSET -27.849251 0.000000 0.000000
											CHANNELS 3 Xrotation Yrotation Zrotation
											End Site
											{
												OFFSET 0 0 0
											}
										}
									}
								}
							}
						}
					}
				}
			}
		}
	}
}
MOTION
Frames: 5
Frame Time: 0.03333333
3.089800 81.398239 4.414391 0.000000 0.000000 0.000000 1.669164 -19.242393 -2.410956 -41.050120 6.219919 14.510952 42.265224 8.942060 -4.097305 -11.754129 10.089281 -5.856538 0.000000 0.000000 0.000000 3.606672 -21.096458 -1.701025 -27.868651 -9.418656 -19.720148 57.400650 7.090505 -3.387638 -5.521584 4.821642 12.839928 0.000000 0.000000 0.000000 -1.810742 -14.110221 3.097845 -11.935685 -14.713590 11.002777 2.780539 -3.468459 6.037363 -1.225136 -1.725941 4.352020 0.000000 0.000000 0.000000 -3.092131 0.928524 4.901076 -1.940424 -0.026221 2.348662 0.000000 0.000000 0.000000 -0.604007 0.755308 4.394423 -0.579292 -8.822241 13.921216 -40.474629 -37.616785 -44.864931 -1.933818 -77.146358 -3.967951 0.000000 0.000000 0.000000 -0.410637 -3.454844 3.077004 0.600000 -3.315761 9.168364 22.041809 57.479826 6.119769 87.665840 78.953572 -83.379288 0.000000 0.000000 0.000000 
3.444199 81.682495 4.502161 0.000000 0.000000 0.000000 1.754949 -19.406862 -2.590059 -40.851266 6.273459 14.273244 42.052098 9.096568 -4.043974 -11.783683 10.223357 -5.690577 0.000000 0.000000 0.000000 3.383143 -21.287181 -1.737744 -28.181147 -9.420121 -19.746012 57.070131 6.964691 -3.385542 -5.456013 4.765952 12.691774 0.000000 0.000000 0.000000 -1.622384 -13.759233 3.107707 -11.519787 -14.635851 11.151140 2.804978 -3.289427 5.993579 -1.227186 -1.622446 4.332380 0.000000 0.000000 0.000000 -3.056449 1.034690 4.806749 -1.938964 0.009009 2.309878 0.000000 0.000000 0.000000 -0.593380 0.880039 4.362624 -0.581002 -8.563443 13.932624 -40.412935 -37.811374 -44.892354 -1.709997 -77.433663 -3.734241 0.000000 0.000000 0.000000 -0.399186 -3.376146 3.062955 0.614360 -3.238204 9.258312 22.225845 57.164087 5.730042 85.457537 78.838599 -81.230470 0.000000 0.000000 0.000000 
3.802851 82.019096 4.575325 0.000000 0.000000 0.000000 1.841257 -19.488222 -2.773232 -40.640350 6.346063 14.032152 41.809948 9.226217 -3.956285 -11.810848 10.325213 -5.495211 0.000000 0.000000 0.000000 3.120230 -21.539304 -1.760058 -28.548203 -9.434239 -19.755596 56.685178 6.840239 -3.419691 -5.406558 4.732051 12.486330 0.000000 0.000000 0.000000 -1.428461 -13.397091 3.112547 -11.106673 -14.564489 11.267295 2.836418 -3.104149 5.950048 -1.222168 -1.516092 4.311545 0.000000 0.000000 0.000000 -3.013720 1.143187 4.714150 -1.935156 0.044790 2.274097 0.000000 0.000000 0.000000 -0.577566 1.009452 4.324923 -0.582804 -8.285706 13.928445 -40.268528 -37.981565 -44.905598 -1.421217 -77.668799 -3.451313 0.000000 0.000000 0.000000 -0.380978 -3.295306 3.041695 0.631344 -3.154575 9.324046 22.339015 56.830702 5.345065 83.223089 78.711790 -79.075661 0.000000 0.000000 0.000000 
4.161803 82.396385 4.636950 0.000000 0.000000 0.000000 1.925628 -19.487836 -2.957669 -40.423225 6.435787 13.791805 41.547853 9.327089 -3.835296 -11.834104 10.390818 -5.272825 0.000000 0.000000 0.000000 2.820490 -21.851293 -1.769910 -28.966518 -9.460727 -19.750718 56.258834 6.723262 -3.486907 -5.372010 4.722411 12.233478 0.000000 0.000000 0.000000 -1.230543 -13.029061 3.111613 -10.699702 -14.503466 11.345387 2.875173 -2.917071 5.905474 -1.210023 -1.409461 4.288748 0.000000 0.000000 0.000000 -2.961988 1.251593 4.625400 -1.927850 0.080000 2.242145 0.000000 0.000000 0.000000 -0.556682 1.139618 4.282643 -0.582691 -8.003008 13.913228 -40.059251 -38.128534 -44.900294 -1.083310 -77.853515 -3.129291 0.000000 0.000000 0.000000 -0.355795 -3.214642 3.013559 0.652042 -3.070898 9.363964 22.378855 56.488434 4.968823 81.023276 78.575610 -76.974832 0.000000 0.000000 0.000000 
4.516649 82.799706 4.690684 0.000000 0.000000 0.000000 2.004777 -19.411387 -3.141556 -40.207073 6.540021 13.555439 41.275243 9.395436 -3.683938 -11.852612 10.416754 -5.028121 0.000000 0.000000 0.000000 2.488520 -22.219563 -1.769683 -29.429813 -9.499110 -19.733547 55.805644 6.619818 -3.581846 -5.350293 4.738543 11.946376 0.000000 0.000000 0.000000 -1.030148 -12.659168 3.104253 -10.303144 -14.453244 11.380510 2.920999 -2.732481 5.858661 -1.191013 -1.305040 4.263325 0.000000 0.000000 0.000000 -2.899795 1.357071 4.541855 -1.916134 0.113245 2.214456 0.000000 0.000000 0.000000 -0.530968 1.266440 4.237143 -0.578620 -7.730199 13.892046 -39.804772 -38.255084 -44.873083 -0.713713 -77.992564 -2.779874 0.000000 0.000000 0.000000 -0.323733 -3.136473 2.979303 0.677402 -2.993176 9.378108 22.343084 56.146125 4.607641 78.906525 78.434621 -74.974543 0.000000 0.000000 0.000000 
